<svg xmlns="http://www.w3.org/2000/svg" xmlns:xlink="http://www.w3.org/1999/xlink" width="500" zoomAndPan="magnify" viewBox="0 0 375 374.999991" height="500" preserveAspectRatio="xMidYMid meet" version="1.0"><defs><g/><clipPath id="a7a60d877f"><path d="M 70.46875 84.269531 L 291.71875 84.269531 L 291.71875 276 L 70.46875 276 Z M 70.46875 84.269531 " clip-rule="nonzero"/></clipPath></defs><g clip-path="url(#a7a60d877f)"><path fill="#000000" d="M 291.742188 275.917969 L 70.46875 275.917969 L 181.105469 84.296875 Z M 80.691406 270.03125 L 281.519531 270.03125 L 181.105469 96.113281 Z M 80.691406 270.03125 " fill-opacity="1" fill-rule="nonzero"/></g><path stroke-linecap="butt" transform="matrix(0, -0.75, 0.75, 0, 106.483063, 214.115962)" fill="none" stroke-linejoin="miter" d="M -0.00163408 2.001749 L 124.680666 2.001749 " stroke="#000000" stroke-width="4" stroke-opacity="1" stroke-miterlimit="4"/><path stroke-linecap="butt" transform="matrix(0.362763, 0.656432, -0.656432, 0.362763, 140.206769, 166.373559)" fill="none" stroke-linejoin="miter" d="M -0.00126433 1.998347 L 71.636826 2.003348 " stroke="#000000" stroke-width="4" stroke-opacity="1" stroke-miterlimit="4"/><path stroke-linecap="butt" transform="matrix(0, -0.75, 0.75, 0, 197.027336, 214.115962)" fill="none" stroke-linejoin="miter" d="M -0.00163408 2.00001 L 124.680666 2.00001 " stroke="#000000" stroke-width="4" stroke-opacity="1" stroke-miterlimit="4"/><path stroke-linecap="butt" transform="matrix(-0.0120291, -0.749903, 0.749903, -0.0120291, 163.379219, 214.139868)" fill="none" stroke-linejoin="miter" d="M -0.00183368 1.999812 L 124.696507 1.999822 " stroke="#000000" stroke-width="4" stroke-opacity="1" stroke-miterlimit="4"/><g fill="#000000" fill-opacity="1"><g transform="translate(113.951936, 293.745888)"><g><path d="M 10.46875 0.484375 L 7.875 -6.125 L 5.046875 0.515625 L 0.625 -11.03125 L 2.359375 -11.03125 L 5.234375 -2.96875 L 7.140625 -8 L 5.96875 -11.03125 L 7.4375 -11.03125 L 10.515625 -3.140625 L 13.25 -11.03125 L 14.84375 -11.03125 Z M 10.46875 0.484375 "/></g></g></g><g fill="#000000" fill-opacity="1"><g transform="translate(129.402672, 293.745888)"><g><path d="M 8.796875 -11.078125 L 8.796875 -9.65625 L 3.078125 -9.65625 L 3.078125 -6.28125 L 8.1875 -6.28125 L 8.1875 -4.859375 L 3.078125 -4.859375 L 3.078125 -1.4375 L 9.015625 -1.4375 L 9.015625 0 L 1.59375 0 L 1.59375 -11.078125 Z M 8.796875 -11.078125 "/></g></g></g><g fill="#000000" fill-opacity="1"><g transform="translate(139.411926, 293.745888)"><g><path d="M 6.53125 -5.75 C 7.164062 -5.5 7.664062 -5.144531 8.03125 -4.6875 C 8.394531 -4.238281 8.578125 -3.710938 8.578125 -3.109375 C 8.578125 -2.398438 8.40625 -1.8125 8.0625 -1.34375 C 7.726562 -0.882812 7.28125 -0.546875 6.71875 -0.328125 C 6.164062 -0.109375 5.554688 0 4.890625 0 L 1.59375 0 L 1.59375 -11.078125 L 4.453125 -11.078125 C 5.585938 -11.078125 6.46875 -10.84375 7.09375 -10.375 C 7.71875 -9.914062 8.03125 -9.222656 8.03125 -8.296875 C 8.03125 -7.710938 7.898438 -7.203125 7.640625 -6.765625 C 7.378906 -6.328125 7.007812 -5.988281 6.53125 -5.75 Z M 3.078125 -6.234375 L 4.765625 -6.234375 C 5.335938 -6.234375 5.769531 -6.394531 6.0625 -6.71875 C 6.351562 -7.050781 6.5 -7.472656 6.5 -7.984375 C 6.5 -8.546875 6.320312 -8.960938 5.96875 -9.234375 C 5.625 -9.515625 5.140625 -9.65625 4.515625 -9.65625 L 3.078125 -9.65625 Z M 4.828125 -1.375 C 5.472656 -1.375 6.003906 -1.519531 6.421875 -1.8125 C 6.835938 -2.101562 7.046875 -2.53125 7.046875 -3.09375 C 7.046875 -3.675781 6.816406 -4.101562 6.359375 -4.375 C 5.910156 -4.65625 5.363281 -4.796875 4.71875 -4.796875 L 3.078125 -4.796875 L 3.078125 -1.375 Z M 4.828125 -1.375 "/></g></g></g><g fill="#000000" fill-opacity="1"><g transform="translate(148.900027, 293.745888)"><g/></g></g><g fill="#000000" fill-opacity="1"><g transform="translate(153.743704, 293.745888)"><g><path d="M 1.59375 -11.078125 L 4.625 -11.078125 C 6.007812 -11.078125 7.148438 -10.800781 8.046875 -10.25 C 8.953125 -9.707031 9.613281 -9.003906 10.03125 -8.140625 C 10.445312 -7.285156 10.65625 -6.375 10.65625 -5.40625 C 10.65625 -4.332031 10.40625 -3.382812 9.90625 -2.5625 C 9.40625 -1.738281 8.734375 -1.101562 7.890625 -0.65625 C 7.054688 -0.21875 6.148438 0 5.171875 0 L 1.59375 0 Z M 4.875 -1.4375 C 5.6875 -1.4375 6.414062 -1.597656 7.0625 -1.921875 C 7.707031 -2.242188 8.210938 -2.710938 8.578125 -3.328125 C 8.941406 -3.941406 9.125 -4.671875 9.125 -5.515625 C 9.125 -6.390625 8.929688 -7.132812 8.546875 -7.75 C 8.171875 -8.375 7.664062 -8.847656 7.03125 -9.171875 C 6.40625 -9.492188 5.734375 -9.65625 5.015625 -9.65625 L 3.078125 -9.65625 L 3.078125 -1.4375 Z M 4.875 -1.4375 "/></g></g></g><g fill="#000000" fill-opacity="1"><g transform="translate(165.301103, 293.745888)"><g><path d="M 8.796875 -11.078125 L 8.796875 -9.65625 L 3.078125 -9.65625 L 3.078125 -6.28125 L 8.1875 -6.28125 L 8.1875 -4.859375 L 3.078125 -4.859375 L 3.078125 -1.4375 L 9.015625 -1.4375 L 9.015625 0 L 1.59375 0 L 1.59375 -11.078125 Z M 8.796875 -11.078125 "/></g></g></g><g fill="#000000" fill-opacity="1"><g transform="translate(175.310357, 293.745888)"><g><path d="M 10.40625 -11.078125 L 5.515625 0.515625 L 0.625 -11.078125 L 2.390625 -11.078125 L 5.578125 -3.09375 L 8.65625 -11.078125 Z M 10.40625 -11.078125 "/></g></g></g><g fill="#000000" fill-opacity="1"><g transform="translate(186.331268, 293.745888)"><g><path d="M 8.796875 -11.078125 L 8.796875 -9.65625 L 3.078125 -9.65625 L 3.078125 -6.28125 L 8.1875 -6.28125 L 8.1875 -4.859375 L 3.078125 -4.859375 L 3.078125 -1.4375 L 9.015625 -1.4375 L 9.015625 0 L 1.59375 0 L 1.59375 -11.078125 Z M 8.796875 -11.078125 "/></g></g></g><g fill="#000000" fill-opacity="1"><g transform="translate(196.340522, 293.745888)"><g><path d="M 3.078125 -11.078125 L 3.078125 -1.4375 L 8.71875 -1.4375 L 8.71875 0 L 1.59375 0 L 1.59375 -11.078125 Z M 3.078125 -11.078125 "/></g></g></g><g fill="#000000" fill-opacity="1"><g transform="translate(205.874606, 293.745888)"><g><path d="M 0.90625 -5.53125 C 0.90625 -6.539062 1.160156 -7.476562 1.671875 -8.34375 C 2.179688 -9.21875 2.867188 -9.910156 3.734375 -10.421875 C 4.597656 -10.941406 5.539062 -11.203125 6.5625 -11.203125 C 7.570312 -11.203125 8.507812 -10.941406 9.375 -10.421875 C 10.25 -9.910156 10.941406 -9.21875 11.453125 -8.34375 C 11.972656 -7.476562 12.234375 -6.539062 12.234375 -5.53125 C 12.234375 -4.507812 11.976562 -3.5625 11.46875 -2.6875 C 10.957031 -1.820312 10.265625 -1.132812 9.390625 -0.625 C 8.515625 -0.125 7.570312 0.125 6.5625 0.125 C 5.539062 0.125 4.59375 -0.125 3.71875 -0.625 C 2.851562 -1.125 2.164062 -1.804688 1.65625 -2.671875 C 1.15625 -3.535156 0.90625 -4.488281 0.90625 -5.53125 Z M 2.4375 -5.515625 C 2.4375 -4.765625 2.617188 -4.066406 2.984375 -3.421875 C 3.359375 -2.773438 3.863281 -2.257812 4.5 -1.875 C 5.132812 -1.5 5.832031 -1.3125 6.59375 -1.3125 C 7.34375 -1.3125 8.03125 -1.5 8.65625 -1.875 C 9.289062 -2.25 9.789062 -2.757812 10.15625 -3.40625 C 10.519531 -4.0625 10.703125 -4.769531 10.703125 -5.53125 C 10.703125 -6.300781 10.515625 -7.007812 10.140625 -7.65625 C 9.773438 -8.3125 9.273438 -8.828125 8.640625 -9.203125 C 8.003906 -9.585938 7.3125 -9.78125 6.5625 -9.78125 C 5.800781 -9.78125 5.101562 -9.585938 4.46875 -9.203125 C 3.84375 -8.816406 3.347656 -8.296875 2.984375 -7.640625 C 2.617188 -6.992188 2.4375 -6.285156 2.4375 -5.515625 Z M 2.4375 -5.515625 "/></g></g></g><g fill="#000000" fill-opacity="1"><g transform="translate(219.010797, 293.745888)"><g><path d="M 4.5625 -11.078125 C 5.769531 -11.078125 6.710938 -10.773438 7.390625 -10.171875 C 8.078125 -9.578125 8.421875 -8.738281 8.421875 -7.65625 C 8.421875 -7.03125 8.296875 -6.445312 8.046875 -5.90625 C 7.796875 -5.363281 7.390625 -4.921875 6.828125 -4.578125 C 6.273438 -4.242188 5.570312 -4.078125 4.71875 -4.078125 L 3.078125 -4.078125 L 3.078125 0 L 1.59375 0 L 1.59375 -11.078125 Z M 4.71875 -5.515625 C 5.25 -5.515625 5.679688 -5.625 6.015625 -5.84375 C 6.347656 -6.070312 6.582031 -6.347656 6.71875 -6.671875 C 6.863281 -6.992188 6.9375 -7.3125 6.9375 -7.625 C 6.9375 -8.15625 6.765625 -8.625 6.421875 -9.03125 C 6.078125 -9.445312 5.535156 -9.65625 4.796875 -9.65625 L 3.078125 -9.65625 L 3.078125 -5.515625 Z M 4.71875 -5.515625 "/></g></g></g><g fill="#000000" fill-opacity="1"><g transform="translate(228.131017, 293.745888)"><g><path d="M 8.796875 -11.078125 L 8.796875 -9.65625 L 3.078125 -9.65625 L 3.078125 -6.28125 L 8.1875 -6.28125 L 8.1875 -4.859375 L 3.078125 -4.859375 L 3.078125 -1.4375 L 9.015625 -1.4375 L 9.015625 0 L 1.59375 0 L 1.59375 -11.078125 Z M 8.796875 -11.078125 "/></g></g></g><g fill="#000000" fill-opacity="1"><g transform="translate(238.140271, 293.745888)"><g><path d="M 7.6875 0 L 5.09375 -4.09375 C 5.007812 -4.082031 4.882812 -4.078125 4.71875 -4.078125 L 3.078125 -4.078125 L 3.078125 0 L 1.59375 0 L 1.59375 -11.078125 L 4.546875 -11.078125 C 5.304688 -11.078125 5.984375 -10.941406 6.578125 -10.671875 C 7.171875 -10.410156 7.632812 -10.019531 7.96875 -9.5 C 8.300781 -8.988281 8.46875 -8.375 8.46875 -7.65625 C 8.46875 -6.96875 8.316406 -6.335938 8.015625 -5.765625 C 7.722656 -5.191406 7.265625 -4.753906 6.640625 -4.453125 L 9.421875 0 Z M 4.6875 -5.515625 C 5.488281 -5.515625 6.0625 -5.722656 6.40625 -6.140625 C 6.757812 -6.566406 6.9375 -7.050781 6.9375 -7.59375 C 6.9375 -7.914062 6.863281 -8.234375 6.71875 -8.546875 C 6.570312 -8.867188 6.335938 -9.132812 6.015625 -9.34375 C 5.691406 -9.550781 5.285156 -9.65625 4.796875 -9.65625 L 3.078125 -9.65625 L 3.078125 -5.515625 Z M 4.6875 -5.515625 "/></g></g></g><path stroke-linecap="butt" transform="matrix(0.364296, -0.655582, 0.655582, 0.364296, 224.174522, 165.2099)" fill="none" stroke-linejoin="miter" d="M 0.00030725 1.997829 L 69.148783 1.999185 " stroke="#000000" stroke-width="4" stroke-opacity="1" stroke-miterlimit="4"/><path stroke-linecap="butt" transform="matrix(0, -0.75, 0.75, 0, 249.174305, 214.115962)" fill="none" stroke-linejoin="miter" d="M -0.00163408 2.001969 L 124.680666 2.001969 " stroke="#000000" stroke-width="4" stroke-opacity="1" stroke-miterlimit="4"/><g fill="#000000" fill-opacity="1"><g transform="translate(102.538247, 262.346995)"><g><path d="M 10.5 0.484375 L 7.90625 -6.15625 L 5.0625 0.515625 L 0.625 -11.0625 L 2.375 -11.0625 L 5.25 -2.984375 L 7.171875 -8.03125 L 5.984375 -11.0625 L 7.453125 -11.0625 L 10.546875 -3.15625 L 13.28125 -11.0625 L 14.890625 -11.0625 Z M 10.5 0.484375 "/></g></g></g><g fill="#000000" fill-opacity="1"><g transform="translate(118.036201, 262.346995)"><g><path d="M 8.828125 -11.109375 L 8.828125 -9.6875 L 3.09375 -9.6875 L 3.09375 -6.296875 L 8.203125 -6.296875 L 8.203125 -4.875 L 3.09375 -4.875 L 3.09375 -1.4375 L 9.046875 -1.4375 L 9.046875 0 L 1.59375 0 L 1.59375 -11.109375 Z M 8.828125 -11.109375 "/></g></g></g><g fill="#000000" fill-opacity="1"><g transform="translate(128.076045, 262.346995)"><g><path d="M 7.34375 -9.125 C 6.945312 -9.34375 6.519531 -9.519531 6.0625 -9.65625 C 5.613281 -9.789062 5.191406 -9.859375 4.796875 -9.859375 C 4.191406 -9.859375 3.710938 -9.722656 3.359375 -9.453125 C 3.003906 -9.179688 2.828125 -8.804688 2.828125 -8.328125 C 2.828125 -7.867188 3.035156 -7.492188 3.453125 -7.203125 C 3.867188 -6.910156 4.460938 -6.617188 5.234375 -6.328125 C 5.804688 -6.128906 6.285156 -5.90625 6.671875 -5.65625 C 7.066406 -5.414062 7.394531 -5.082031 7.65625 -4.65625 C 7.925781 -4.238281 8.0625 -3.703125 8.0625 -3.046875 C 8.0625 -2.453125 7.910156 -1.910156 7.609375 -1.421875 C 7.316406 -0.941406 6.894531 -0.5625 6.34375 -0.28125 C 5.789062 -0.0078125 5.144531 0.125 4.40625 0.125 C 3.71875 0.125 3.054688 0.015625 2.421875 -0.203125 C 1.785156 -0.421875 1.226562 -0.703125 0.75 -1.046875 L 1.421875 -2.234375 C 1.796875 -1.941406 2.25 -1.695312 2.78125 -1.5 C 3.3125 -1.300781 3.8125 -1.203125 4.28125 -1.203125 C 4.875 -1.203125 5.390625 -1.351562 5.828125 -1.65625 C 6.273438 -1.96875 6.5 -2.425781 6.5 -3.03125 C 6.5 -3.539062 6.3125 -3.945312 5.9375 -4.25 C 5.5625 -4.550781 5.035156 -4.835938 4.359375 -5.109375 C 3.734375 -5.335938 3.210938 -5.566406 2.796875 -5.796875 C 2.390625 -6.023438 2.035156 -6.332031 1.734375 -6.71875 C 1.441406 -7.113281 1.296875 -7.609375 1.296875 -8.203125 C 1.296875 -9.078125 1.597656 -9.78125 2.203125 -10.3125 C 2.816406 -10.851562 3.609375 -11.140625 4.578125 -11.171875 C 5.773438 -11.171875 6.890625 -10.875 7.921875 -10.28125 Z M 7.34375 -9.125 "/></g></g></g><g fill="#000000" fill-opacity="1"><g transform="translate(137.024272, 262.346995)"><g><path d="M 8.171875 -11.109375 L 8.171875 -9.6875 L 5.1875 -9.6875 L 5.1875 0 L 3.6875 0 L 3.6875 -9.6875 L 0.78125 -9.6875 L 0.78125 -11.109375 Z M 8.171875 -11.109375 "/></g></g></g><g fill="#000000" fill-opacity="1"><g transform="translate(145.972498, 262.346995)"><g><path d="M 0.90625 -5.546875 C 0.90625 -6.566406 1.160156 -7.507812 1.671875 -8.375 C 2.179688 -9.25 2.867188 -9.941406 3.734375 -10.453125 C 4.609375 -10.972656 5.554688 -11.234375 6.578125 -11.234375 C 7.597656 -11.234375 8.539062 -10.972656 9.40625 -10.453125 C 10.28125 -9.941406 10.972656 -9.25 11.484375 -8.375 C 12.003906 -7.507812 12.265625 -6.566406 12.265625 -5.546875 C 12.265625 -4.523438 12.007812 -3.578125 11.5 -2.703125 C 10.988281 -1.835938 10.296875 -1.148438 9.421875 -0.640625 C 8.546875 -0.128906 7.597656 0.125 6.578125 0.125 C 5.554688 0.125 4.609375 -0.125 3.734375 -0.625 C 2.859375 -1.132812 2.164062 -1.820312 1.65625 -2.6875 C 1.15625 -3.550781 0.90625 -4.503906 0.90625 -5.546875 Z M 2.4375 -5.53125 C 2.4375 -4.769531 2.617188 -4.066406 2.984375 -3.421875 C 3.359375 -2.773438 3.863281 -2.265625 4.5 -1.890625 C 5.144531 -1.515625 5.847656 -1.328125 6.609375 -1.328125 C 7.367188 -1.328125 8.0625 -1.507812 8.6875 -1.875 C 9.320312 -2.25 9.820312 -2.757812 10.1875 -3.40625 C 10.550781 -4.0625 10.734375 -4.773438 10.734375 -5.546875 C 10.734375 -6.316406 10.546875 -7.03125 10.171875 -7.6875 C 9.804688 -8.34375 9.304688 -8.859375 8.671875 -9.234375 C 8.035156 -9.617188 7.335938 -9.8125 6.578125 -9.8125 C 5.816406 -9.8125 5.117188 -9.617188 4.484375 -9.234375 C 3.847656 -8.847656 3.347656 -8.328125 2.984375 -7.671875 C 2.617188 -7.015625 2.4375 -6.300781 2.4375 -5.53125 Z M 2.4375 -5.53125 "/></g></g></g><g fill="#000000" fill-opacity="1"><g transform="translate(159.148835, 262.346995)"><g><path d="M 11.28125 -11.109375 L 11.28125 0.375 L 11.234375 0.375 L 3.078125 -7.921875 L 3.109375 0 L 1.59375 0 L 1.59375 -11.453125 L 1.671875 -11.453125 L 9.828125 -3.078125 L 9.796875 -11.109375 Z M 11.28125 -11.109375 "/></g></g></g><g fill="#000000" fill-opacity="1"><g transform="translate(172.033051, 262.346995)"><g/></g></g><g fill="#000000" fill-opacity="1"><g transform="translate(176.891537, 262.346995)"><g><path d="M 12.65625 -11.46875 L 12.65625 0 L 11.171875 0 L 11.171875 -7.203125 L 7.09375 -1.40625 L 7.0625 -1.40625 L 3.046875 -7 L 3.046875 0 L 1.59375 0 L 1.59375 -11.46875 L 1.609375 -11.46875 L 7.09375 -3.71875 L 12.640625 -11.46875 Z M 12.65625 -11.46875 "/></g></g></g><g fill="#000000" fill-opacity="1"><g transform="translate(191.144122, 262.346995)"><g><path d="M 8.828125 -11.109375 L 8.828125 -9.6875 L 3.09375 -9.6875 L 3.09375 -6.296875 L 8.203125 -6.296875 L 8.203125 -4.875 L 3.09375 -4.875 L 3.09375 -1.4375 L 9.046875 -1.4375 L 9.046875 0 L 1.59375 0 L 1.59375 -11.109375 Z M 8.828125 -11.109375 "/></g></g></g><g fill="#000000" fill-opacity="1"><g transform="translate(201.183966, 262.346995)"><g><path d="M 7.421875 -2.921875 L 3.15625 -2.921875 L 1.96875 0 L 0.484375 0 L 5.34375 -11.578125 L 5.4375 -11.578125 L 10.296875 0 L 8.578125 0 Z M 6.921875 -4.21875 L 5.328125 -8.265625 L 3.6875 -4.21875 Z M 6.921875 -4.21875 "/></g></g></g><g fill="#000000" fill-opacity="1"><g transform="translate(211.961816, 262.346995)"><g><path d="M 9.765625 -0.828125 C 9.398438 -0.597656 8.941406 -0.378906 8.390625 -0.171875 C 7.847656 0.0234375 7.253906 0.125 6.609375 0.125 C 5.472656 0.125 4.472656 -0.125 3.609375 -0.625 C 2.742188 -1.132812 2.078125 -1.8125 1.609375 -2.65625 C 1.140625 -3.507812 0.90625 -4.445312 0.90625 -5.46875 C 0.90625 -6.570312 1.140625 -7.5625 1.609375 -8.4375 C 2.085938 -9.3125 2.742188 -9.992188 3.578125 -10.484375 C 4.410156 -10.984375 5.351562 -11.234375 6.40625 -11.234375 C 7.03125 -11.234375 7.613281 -11.148438 8.15625 -10.984375 C 8.707031 -10.828125 9.195312 -10.613281 9.625 -10.34375 L 9.03125 -8.953125 C 8.175781 -9.523438 7.316406 -9.8125 6.453125 -9.8125 C 5.734375 -9.8125 5.066406 -9.617188 4.453125 -9.234375 C 3.847656 -8.859375 3.363281 -8.34375 3 -7.6875 C 2.632812 -7.039062 2.453125 -6.328125 2.453125 -5.546875 C 2.453125 -4.742188 2.617188 -4.019531 2.953125 -3.375 C 3.285156 -2.726562 3.757812 -2.222656 4.375 -1.859375 C 5 -1.503906 5.71875 -1.328125 6.53125 -1.328125 C 7.53125 -1.328125 8.394531 -1.609375 9.125 -2.171875 Z M 9.765625 -0.828125 "/></g></g></g><g fill="#000000" fill-opacity="1"><g transform="translate(222.632035, 262.346995)"><g><path d="M 10.40625 0 L 8.921875 0 L 8.921875 -4.875 L 3.09375 -4.875 L 3.09375 0 L 1.59375 0 L 1.59375 -11.109375 L 3.09375 -11.109375 L 3.09375 -6.296875 L 8.921875 -6.296875 L 8.921875 -11.109375 L 10.40625 -11.109375 Z M 10.40625 0 "/></g></g></g><g fill="#000000" fill-opacity="1"><g transform="translate(234.639873, 262.346995)"><g><path d="M 7.421875 -2.921875 L 3.15625 -2.921875 L 1.96875 0 L 0.484375 0 L 5.34375 -11.578125 L 5.4375 -11.578125 L 10.296875 0 L 8.578125 0 Z M 6.921875 -4.21875 L 5.328125 -8.265625 L 3.6875 -4.21875 Z M 6.921875 -4.21875 "/></g></g></g><g fill="#000000" fill-opacity="1"><g transform="translate(245.417723, 262.346995)"><g><path d="M 12.65625 -11.46875 L 12.65625 0 L 11.171875 0 L 11.171875 -7.203125 L 7.09375 -1.40625 L 7.0625 -1.40625 L 3.046875 -7 L 3.046875 0 L 1.59375 0 L 1.59375 -11.46875 L 1.609375 -11.46875 L 7.09375 -3.71875 L 12.640625 -11.46875 Z M 12.65625 -11.46875 "/></g></g></g></svg>