<svg xmlns="http://www.w3.org/2000/svg" xmlns:xlink="http://www.w3.org/1999/xlink" width="500" zoomAndPan="magnify" viewBox="0 0 375 374.999991" height="500" preserveAspectRatio="xMidYMid meet" version="1.0"><defs><g/><clipPath id="db2727900f"><path d="M 71.390625 172.078125 L 298.222656 172.078125 L 298.222656 197.695312 L 71.390625 197.695312 Z M 71.390625 172.078125 " clip-rule="nonzero"/></clipPath></defs><path stroke-linecap="butt" transform="matrix(0.00181951, -0.749998, 0.749998, 0.00181951, 187.12366, 259.034016)" fill="none" stroke-linejoin="miter" d="M -0.000303268 0.501789 L 206.099269 0.501788 " stroke="#000000" stroke-width="1" stroke-opacity="1" stroke-miterlimit="4"/><g fill="#000000" fill-opacity="1"><g transform="translate(56.995676, 228.61954)"><g><path d="M 0 -91.1875 C 5.617188 -91.1875 8.566406 -86.121094 12.617188 -75.988281 L 42.09375 1.84375 L 43.015625 1.84375 L 61.710938 -47.527344 L 80.410156 1.84375 L 81.332031 1.84375 L 110.804688 -75.988281 C 114.675781 -86.210938 117.804688 -91.1875 123.425781 -91.1875 L 123.425781 -92.109375 L 97.359375 -92.109375 L 97.359375 -91.1875 C 110.34375 -91.1875 110.160156 -81.515625 107.765625 -74.148438 C 100.671875 -52.316406 92.015625 -30.578125 84.371094 -8.84375 L 65.671875 -58.027344 L 72.488281 -75.988281 C 76.355469 -86.210938 79.488281 -91.1875 85.105469 -91.1875 L 85.105469 -92.109375 L 38.316406 -92.109375 L 38.316406 -91.1875 C 43.933594 -91.1875 46.882812 -86.121094 50.933594 -75.988281 L 60.976562 -49.554688 C 56 -35.921875 50.84375 -22.382812 46.054688 -8.84375 L 21.183594 -74.421875 C 17.683594 -83.726562 17.222656 -91.1875 30.210938 -91.1875 L 30.210938 -92.109375 L 0 -92.109375 Z M 63.554688 -91.09375 C 74.238281 -91.09375 71.566406 -80.5 69.449219 -74.148438 C 67.882812 -69.542969 66.410156 -64.9375 64.84375 -60.421875 L 59.5 -74.421875 C 56.460938 -82.34375 54.710938 -91.09375 63.554688 -91.09375 Z M 63.554688 -91.09375 "/></g></g></g><g fill="#000000" fill-opacity="1"><g transform="translate(207.394583, 228.61954)"><g><path d="M 2.761719 -92.109375 L 2.761719 -91.1875 C 10.683594 -91.1875 11.238281 -84.648438 11.238281 -66.5 L 11.238281 -25.605469 C 11.238281 -7.460938 10.683594 -0.921875 2.761719 -0.921875 L 2.761719 0 L 27.632812 0 L 27.632812 -0.921875 C 19.710938 -0.921875 12.15625 -7.554688 12.15625 -34.355469 L 12.15625 -46.054688 L 12.25 -85.566406 C 26.25 -55.539062 34.539062 -37.671875 49 -6.722656 L 49.832031 -6.722656 C 61.160156 -37.121094 70.460938 -62.449219 80.410156 -89.066406 L 80.410156 -25.605469 C 80.410156 -7.460938 79.855469 -0.921875 71.9375 -0.921875 L 71.9375 0 L 96.804688 0 L 96.804688 -0.921875 C 88.882812 -0.921875 88.332031 -7.460938 88.332031 -25.605469 L 88.332031 -66.5 C 88.332031 -84.648438 88.882812 -91.1875 96.804688 -91.1875 L 96.804688 -92.109375 L 80.59375 -92.109375 L 52.960938 -17.867188 L 17.59375 -92.109375 Z M 2.761719 -92.109375 "/></g></g></g><g clip-path="url(#db2727900f)"><path fill="#e6e6e6" d="M 71.390625 172.078125 L 298.234375 172.078125 L 298.234375 197.695312 L 71.390625 197.695312 Z M 71.390625 172.078125 " fill-opacity="1" fill-rule="nonzero"/></g><g fill="#000000" fill-opacity="1"><g transform="translate(83.133099, 189.572433)"><g><path d="M 15.625 -10.171875 L 12.1875 0 L 11.0625 0 L 8.078125 -8.671875 L 5.078125 0 L 3.96875 0 L 0.53125 -10.171875 L 1.640625 -10.171875 L 4.578125 -1.421875 L 7.609375 -10.171875 L 8.609375 -10.171875 L 11.609375 -1.375 L 14.59375 -10.171875 Z M 15.625 -10.171875 "/></g></g></g><g fill="#000000" fill-opacity="1"><g transform="translate(103.898958, 189.572433)"><g><path d="M 8.84375 -0.9375 L 8.84375 0 L 1.65625 0 L 1.65625 -10.171875 L 8.625 -10.171875 L 8.625 -9.234375 L 2.734375 -9.234375 L 2.734375 -5.625 L 7.984375 -5.625 L 7.984375 -4.703125 L 2.734375 -4.703125 L 2.734375 -0.9375 Z M 8.84375 -0.9375 "/></g></g></g><g fill="#000000" fill-opacity="1"><g transform="translate(118.247187, 189.572433)"><g><path d="M 4.46875 0.09375 C 3.707031 0.09375 2.976562 -0.0234375 2.28125 -0.265625 C 1.59375 -0.515625 1.0625 -0.835938 0.6875 -1.234375 L 1.109375 -2.0625 C 1.472656 -1.695312 1.957031 -1.398438 2.5625 -1.171875 C 3.175781 -0.941406 3.8125 -0.828125 4.46875 -0.828125 C 5.375 -0.828125 6.050781 -0.992188 6.5 -1.328125 C 6.957031 -1.660156 7.1875 -2.09375 7.1875 -2.625 C 7.1875 -3.03125 7.0625 -3.351562 6.8125 -3.59375 C 6.570312 -3.84375 6.269531 -4.03125 5.90625 -4.15625 C 5.550781 -4.289062 5.054688 -4.4375 4.421875 -4.59375 C 3.648438 -4.78125 3.035156 -4.960938 2.578125 -5.140625 C 2.128906 -5.328125 1.742188 -5.601562 1.421875 -5.96875 C 1.097656 -6.34375 0.9375 -6.84375 0.9375 -7.46875 C 0.9375 -7.976562 1.070312 -8.441406 1.34375 -8.859375 C 1.613281 -9.285156 2.023438 -9.625 2.578125 -9.875 C 3.140625 -10.132812 3.835938 -10.265625 4.671875 -10.265625 C 5.253906 -10.265625 5.820312 -10.179688 6.375 -10.015625 C 6.9375 -9.859375 7.421875 -9.640625 7.828125 -9.359375 L 7.46875 -8.5 C 7.039062 -8.78125 6.582031 -8.988281 6.09375 -9.125 C 5.613281 -9.269531 5.140625 -9.34375 4.671875 -9.34375 C 3.785156 -9.34375 3.113281 -9.171875 2.65625 -8.828125 C 2.207031 -8.484375 1.984375 -8.039062 1.984375 -7.5 C 1.984375 -7.09375 2.109375 -6.765625 2.359375 -6.515625 C 2.609375 -6.265625 2.914062 -6.070312 3.28125 -5.9375 C 3.65625 -5.8125 4.160156 -5.671875 4.796875 -5.515625 C 5.546875 -5.335938 6.148438 -5.15625 6.609375 -4.96875 C 7.066406 -4.789062 7.453125 -4.519531 7.765625 -4.15625 C 8.085938 -3.800781 8.25 -3.3125 8.25 -2.6875 C 8.25 -2.175781 8.109375 -1.707031 7.828125 -1.28125 C 7.554688 -0.863281 7.132812 -0.53125 6.5625 -0.28125 C 5.988281 -0.03125 5.289062 0.09375 4.46875 0.09375 Z M 4.46875 0.09375 "/></g></g></g><g fill="#000000" fill-opacity="1"><g transform="translate(131.81137, 189.572433)"><g><path d="M 3.625 -9.234375 L 0.0625 -9.234375 L 0.0625 -10.171875 L 8.28125 -10.171875 L 8.28125 -9.234375 L 4.703125 -9.234375 L 4.703125 0 L 3.625 0 Z M 3.625 -9.234375 "/></g></g></g><g fill="#000000" fill-opacity="1"><g transform="translate(144.780255, 189.572433)"><g><path d="M 6.109375 0.09375 C 5.097656 0.09375 4.179688 -0.128906 3.359375 -0.578125 C 2.546875 -1.035156 1.90625 -1.65625 1.4375 -2.4375 C 0.976562 -3.226562 0.75 -4.109375 0.75 -5.078125 C 0.75 -6.054688 0.976562 -6.9375 1.4375 -7.71875 C 1.90625 -8.507812 2.546875 -9.128906 3.359375 -9.578125 C 4.179688 -10.035156 5.097656 -10.265625 6.109375 -10.265625 C 7.109375 -10.265625 8.015625 -10.039062 8.828125 -9.59375 C 9.640625 -9.144531 10.273438 -8.523438 10.734375 -7.734375 C 11.203125 -6.941406 11.4375 -6.054688 11.4375 -5.078125 C 11.4375 -4.109375 11.203125 -3.226562 10.734375 -2.4375 C 10.273438 -1.644531 9.640625 -1.023438 8.828125 -0.578125 C 8.015625 -0.128906 7.109375 0.09375 6.109375 0.09375 Z M 6.109375 -0.875 C 6.910156 -0.875 7.632812 -1.054688 8.28125 -1.421875 C 8.925781 -1.785156 9.429688 -2.285156 9.796875 -2.921875 C 10.171875 -3.566406 10.359375 -4.285156 10.359375 -5.078125 C 10.359375 -5.878906 10.171875 -6.597656 9.796875 -7.234375 C 9.429688 -7.878906 8.925781 -8.382812 8.28125 -8.75 C 7.632812 -9.113281 6.910156 -9.296875 6.109375 -9.296875 C 5.296875 -9.296875 4.5625 -9.113281 3.90625 -8.75 C 3.257812 -8.382812 2.75 -7.878906 2.375 -7.234375 C 2 -6.597656 1.8125 -5.878906 1.8125 -5.078125 C 1.8125 -4.285156 2 -3.566406 2.375 -2.921875 C 2.75 -2.285156 3.257812 -1.785156 3.90625 -1.421875 C 4.5625 -1.054688 5.296875 -0.875 6.109375 -0.875 Z M 6.109375 -0.875 "/></g></g></g><g fill="#000000" fill-opacity="1"><g transform="translate(161.596803, 189.572433)"><g><path d="M 10.15625 -10.171875 L 10.15625 0 L 9.265625 0 L 2.734375 -8.25 L 2.734375 0 L 1.65625 0 L 1.65625 -10.171875 L 2.546875 -10.171875 L 9.09375 -1.921875 L 9.09375 -10.171875 Z M 10.15625 -10.171875 "/></g></g></g><g fill="#000000" fill-opacity="1"><g transform="translate(178.035845, 189.572433)"><g/></g></g><g fill="#000000" fill-opacity="1"><g transform="translate(186.474638, 189.572433)"><g><path d="M 12.21875 -10.171875 L 12.21875 0 L 11.1875 0 L 11.1875 -8.140625 L 7.1875 -1.296875 L 6.6875 -1.296875 L 2.6875 -8.09375 L 2.6875 0 L 1.65625 0 L 1.65625 -10.171875 L 2.546875 -10.171875 L 6.953125 -2.625 L 11.328125 -10.171875 Z M 12.21875 -10.171875 "/></g></g></g><g fill="#000000" fill-opacity="1"><g transform="translate(204.975453, 189.572433)"><g><path d="M 8.84375 -0.9375 L 8.84375 0 L 1.65625 0 L 1.65625 -10.171875 L 8.625 -10.171875 L 8.625 -9.234375 L 2.734375 -9.234375 L 2.734375 -5.625 L 7.984375 -5.625 L 7.984375 -4.703125 L 2.734375 -4.703125 L 2.734375 -0.9375 Z M 8.84375 -0.9375 "/></g></g></g><g fill="#000000" fill-opacity="1"><g transform="translate(219.323688, 189.572433)"><g><path d="M 8.03125 -2.71875 L 2.375 -2.71875 L 1.140625 0 L 0.03125 0 L 4.671875 -10.171875 L 5.734375 -10.171875 L 10.390625 0 L 9.25 0 Z M 7.640625 -3.59375 L 5.203125 -9.046875 L 2.765625 -3.59375 Z M 7.640625 -3.59375 "/></g></g></g><g fill="#000000" fill-opacity="1"><g transform="translate(234.368868, 189.572433)"><g><path d="M 6.078125 0.09375 C 5.066406 0.09375 4.15625 -0.128906 3.34375 -0.578125 C 2.539062 -1.023438 1.90625 -1.644531 1.4375 -2.4375 C 0.976562 -3.226562 0.75 -4.109375 0.75 -5.078125 C 0.75 -6.054688 0.976562 -6.941406 1.4375 -7.734375 C 1.90625 -8.523438 2.546875 -9.144531 3.359375 -9.59375 C 4.171875 -10.039062 5.082031 -10.265625 6.09375 -10.265625 C 6.84375 -10.265625 7.535156 -10.132812 8.171875 -9.875 C 8.816406 -9.625 9.363281 -9.257812 9.8125 -8.78125 L 9.125 -8.09375 C 8.332031 -8.894531 7.332031 -9.296875 6.125 -9.296875 C 5.3125 -9.296875 4.578125 -9.113281 3.921875 -8.75 C 3.265625 -8.382812 2.75 -7.878906 2.375 -7.234375 C 2 -6.597656 1.8125 -5.878906 1.8125 -5.078125 C 1.8125 -4.285156 2 -3.566406 2.375 -2.921875 C 2.75 -2.285156 3.265625 -1.785156 3.921875 -1.421875 C 4.578125 -1.054688 5.3125 -0.875 6.125 -0.875 C 7.34375 -0.875 8.34375 -1.28125 9.125 -2.09375 L 9.8125 -1.40625 C 9.363281 -0.925781 8.816406 -0.554688 8.171875 -0.296875 C 7.523438 -0.0351562 6.828125 0.09375 6.078125 0.09375 Z M 6.078125 0.09375 "/></g></g></g><g fill="#000000" fill-opacity="1"><g transform="translate(249.443071, 189.572433)"><g><path d="M 10.15625 -10.171875 L 10.15625 0 L 9.09375 0 L 9.09375 -4.6875 L 2.734375 -4.6875 L 2.734375 0 L 1.65625 0 L 1.65625 -10.171875 L 2.734375 -10.171875 L 2.734375 -5.640625 L 9.09375 -5.640625 L 9.09375 -10.171875 Z M 10.15625 -10.171875 "/></g></g></g><g fill="#000000" fill-opacity="1"><g transform="translate(265.882119, 189.572433)"><g><path d="M 8.03125 -2.71875 L 2.375 -2.71875 L 1.140625 0 L 0.03125 0 L 4.671875 -10.171875 L 5.734375 -10.171875 L 10.390625 0 L 9.25 0 Z M 7.640625 -3.59375 L 5.203125 -9.046875 L 2.765625 -3.59375 Z M 7.640625 -3.59375 "/></g></g></g><g fill="#000000" fill-opacity="1"><g transform="translate(280.927299, 189.572433)"><g><path d="M 12.21875 -10.171875 L 12.21875 0 L 11.1875 0 L 11.1875 -8.140625 L 7.1875 -1.296875 L 6.6875 -1.296875 L 2.6875 -8.09375 L 2.6875 0 L 1.65625 0 L 1.65625 -10.171875 L 2.546875 -10.171875 L 6.953125 -2.625 L 11.328125 -10.171875 Z M 12.21875 -10.171875 "/></g></g></g></svg>