<svg xmlns="http://www.w3.org/2000/svg" xmlns:xlink="http://www.w3.org/1999/xlink" width="200" zoomAndPan="magnify" viewBox="0 0 375 374.999991" height="150" preserveAspectRatio="xMidYMid meet" version="1.0"><defs><g/></defs><path stroke-linecap="butt" transform="matrix(0.00181951, -0.749998, 0.749998, 0.00181951, 187.12366, 259.034016)" fill="none" stroke-linejoin="miter" d="M -0.000303268 0.501789 L 206.099269 0.501788 " stroke="#ffffff" stroke-width="1" stroke-opacity="1" stroke-miterlimit="4"/><g fill="#ffffff" fill-opacity="1"><g transform="translate(56.995676, 228.61954)"><g><path d="M 0 -91.1875 C 5.617188 -91.1875 8.566406 -86.121094 12.617188 -75.988281 L 42.09375 1.84375 L 43.015625 1.84375 L 61.710938 -47.527344 L 80.410156 1.84375 L 81.332031 1.84375 L 110.804688 -75.988281 C 114.675781 -86.210938 117.804688 -91.1875 123.425781 -91.1875 L 123.425781 -92.109375 L 97.359375 -92.109375 L 97.359375 -91.1875 C 110.34375 -91.1875 110.160156 -81.515625 107.765625 -74.148438 C 100.671875 -52.316406 92.015625 -30.578125 84.371094 -8.84375 L 65.671875 -58.027344 L 72.488281 -75.988281 C 76.355469 -86.210938 79.488281 -91.1875 85.105469 -91.1875 L 85.105469 -92.109375 L 38.316406 -92.109375 L 38.316406 -91.1875 C 43.933594 -91.1875 46.882812 -86.121094 50.933594 -75.988281 L 60.976562 -49.554688 C 56 -35.921875 50.84375 -22.382812 46.054688 -8.84375 L 21.183594 -74.421875 C 17.683594 -83.726562 17.222656 -91.1875 30.210938 -91.1875 L 30.210938 -92.109375 L 0 -92.109375 Z M 63.554688 -91.09375 C 74.238281 -91.09375 71.566406 -80.5 69.449219 -74.148438 C 67.882812 -69.542969 66.410156 -64.9375 64.84375 -60.421875 L 59.5 -74.421875 C 56.460938 -82.34375 54.710938 -91.09375 63.554688 -91.09375 Z M 63.554688 -91.09375 "/></g></g></g><g fill="#ffffff" fill-opacity="1"><g transform="translate(207.394583, 228.61954)"><g><path d="M 2.761719 -92.109375 L 2.761719 -91.1875 C 10.683594 -91.1875 11.238281 -84.648438 11.238281 -66.5 L 11.238281 -25.605469 C 11.238281 -7.460938 10.683594 -0.921875 2.761719 -0.921875 L 2.761719 0 L 27.632812 0 L 27.632812 -0.921875 C 19.710938 -0.921875 12.15625 -7.554688 12.15625 -34.355469 L 12.15625 -46.054688 L 12.25 -85.566406 C 26.25 -55.539062 34.539062 -37.671875 49 -6.722656 L 49.832031 -6.722656 C 61.160156 -37.121094 70.460938 -62.449219 80.410156 -89.066406 L 80.410156 -25.605469 C 80.410156 -7.460938 79.855469 -0.921875 71.9375 -0.921875 L 71.9375 0 L 96.804688 0 L 96.804688 -0.921875 C 88.882812 -0.921875 88.332031 -7.460938 88.332031 -25.605469 L 88.332031 -66.5 C 88.332031 -84.648438 88.882812 -91.1875 96.804688 -91.1875 L 96.804688 -92.109375 L 80.59375 -92.109375 L 52.960938 -17.867188 L 17.59375 -92.109375 Z M 2.761719 -92.109375 "/></g></g></g><g fill="#ffffff" fill-opacity="1"><g transform="translate(77.961522, 123.430554)"><g><path d="M 17.371094 -8.964844 L 14.898438 -1.074219 L 14.089844 -1.074219 L 11.175781 -10.304688 L 8.597656 -10.304688 L 5.699219 -1.074219 L 4.886719 -1.074219 L 2.414062 -8.964844 C 2.179688 -9.671875 3.519531 -10.292969 3.519531 -10.292969 L -0.117188 -10.292969 C -0.117188 -10.292969 0.855469 -9.894531 1.25 -8.878906 L 4.046875 0 L 6.550781 0 L 9.453125 -9.214844 L 10.335938 -9.214844 L 13.234375 0 L 15.738281 0 L 18.535156 -8.890625 C 18.933594 -9.894531 19.90625 -10.304688 19.90625 -10.304688 L 16.269531 -10.304688 C 16.269531 -10.292969 17.609375 -9.671875 17.371094 -8.964844 Z M 17.371094 -8.964844 "/></g></g></g><g fill="#ffffff" fill-opacity="1"><g transform="translate(97.758186, 123.430554)"><g><path d="M 7.90625 -1.074219 L 3.34375 -1.074219 C 2.769531 -1.074219 2.3125 -1.53125 2.3125 -2.105469 L 2.3125 -4.695312 L 5.742188 -4.695312 C 6.332031 -4.695312 6.832031 -3.960938 6.832031 -3.960938 L 6.832031 -6.476562 C 6.832031 -6.476562 6.300781 -5.769531 5.742188 -5.769531 L 2.3125 -5.769531 L 2.3125 -8.171875 C 2.3125 -8.761719 2.78125 -9.214844 3.355469 -9.214844 L 7.539062 -9.214844 C 8.066406 -9.214844 9.203125 -7.539062 9.203125 -7.539062 L 8.582031 -10.292969 L 0.457031 -10.292969 C 0.457031 -10.292969 1.179688 -9.777344 1.179688 -8.980469 L 1.179688 -1.339844 C 1.179688 -0.425781 0.457031 0.015625 0.457031 0.015625 L 8.9375 0.015625 L 9.554688 -3.03125 C 9.554688 -3.03125 8.421875 -1.074219 7.90625 -1.074219 Z M 7.90625 -1.074219 "/></g></g></g><g fill="#ffffff" fill-opacity="1"><g transform="translate(107.766913, 123.430554)"><g><path d="M 1.914062 -7.375 C 1.914062 -8.746094 3.152344 -9.378906 5.300781 -9.378906 C 7.40625 -9.378906 8.640625 -8.65625 8.640625 -7.007812 L 9.921875 -6.859375 C 9.921875 -8.332031 8.878906 -10.421875 5.300781 -10.421875 C 1.824219 -10.421875 0.78125 -8.90625 0.78125 -7.375 C 0.78125 -3.976562 8.890625 -4.695312 8.890625 -2.707031 C 8.890625 -1.457031 7.683594 -0.914062 5.359375 -0.914062 C 3.414062 -0.914062 1.824219 -1.382812 1.824219 -3.960938 L 0.558594 -4.09375 C 0.558594 -1.179688 2.179688 0.160156 5.359375 0.160156 C 8.496094 0.160156 10.027344 -1.179688 10.027344 -2.707031 C 10.027344 -5.800781 1.914062 -5.125 1.914062 -7.375 Z M 1.914062 -7.375 "/></g></g></g><g fill="#ffffff" fill-opacity="1"><g transform="translate(118.349665, 123.430554)"><g><path d="M 10.511719 -10.246094 L 10.511719 -10.304688 L 0.632812 -10.304688 L 0.632812 -10.246094 L 0.175781 -7.539062 C 0.175781 -7.539062 1.28125 -9.214844 1.8125 -9.214844 L 4.285156 -9.214844 C 4.726562 -8.980469 5.003906 -8.789062 5.003906 -8.273438 L 5.003906 -1.308594 C 5.003906 -0.382812 4.285156 0 4.285156 0 L 6.875 0 C 6.875 0 6.140625 -0.425781 6.140625 -1.308594 L 6.140625 -8.273438 C 6.140625 -8.789062 6.417969 -8.980469 6.859375 -9.214844 L 9.335938 -9.214844 C 9.863281 -9.214844 10.984375 -7.539062 10.984375 -7.539062 Z M 10.511719 -10.246094 "/></g></g></g><g fill="#ffffff" fill-opacity="1"><g transform="translate(129.521169, 123.430554)"><g><path d="M 5.902344 -9.378906 C 8.347656 -9.378906 10.21875 -7.390625 10.21875 -5.136719 C 10.21875 -2.929688 8.347656 -0.914062 5.902344 -0.914062 C 3.445312 -0.914062 1.589844 -2.929688 1.589844 -5.136719 C 1.589844 -7.390625 3.460938 -9.378906 5.902344 -9.378906 Z M 0.472656 -5.136719 C 0.472656 -2.207031 2.972656 0.160156 5.902344 0.160156 C 8.832031 0.160156 11.335938 -2.207031 11.335938 -5.136719 C 11.335938 -8.066406 8.832031 -10.453125 5.902344 -10.453125 C 2.972656 -10.453125 0.472656 -8.066406 0.472656 -5.136719 Z M 0.472656 -5.136719 "/></g></g></g><g fill="#ffffff" fill-opacity="1"><g transform="translate(141.340294, 123.430554)"><g><path d="M 8.90625 -10.292969 C 8.90625 -10.292969 9.644531 -9.910156 9.644531 -8.980469 L 9.644531 -1.074219 L 9.039062 -1.074219 L 3.710938 -10.292969 L 1.164062 -10.292969 L 1.164062 -1.308594 C 1.164062 -0.414062 0.441406 0.015625 0.441406 0.015625 L 3.019531 0.015625 C 3.019531 0.015625 2.296875 -0.441406 2.296875 -1.308594 L 2.296875 -9.214844 L 3.078125 -9.214844 L 8.40625 0 L 10.761719 0 L 10.761719 -8.980469 C 10.761719 -9.910156 11.5 -10.292969 11.5 -10.292969 Z M 8.90625 -10.292969 "/></g></g></g><g fill="#ffffff" fill-opacity="1"><g transform="translate(213.257803, 253.20552)"><g><path d="M 13.066406 0.015625 L 15.65625 0.015625 C 15.65625 0.015625 14.921875 -0.339844 14.921875 -1.308594 L 14.921875 -10.273438 L 12.289062 -10.273438 L 8.613281 -1.074219 L 7.46875 -1.074219 L 3.792969 -10.273438 L 1.160156 -10.273438 L 1.160156 -1.308594 C 1.160156 -0.5 0.441406 0.015625 0.441406 0.015625 L 3.011719 0.015625 C 3.011719 0.015625 2.292969 -0.441406 2.292969 -1.308594 L 2.292969 -9.203125 L 3.027344 -9.203125 L 6.703125 0.015625 L 9.378906 0 L 13.054688 -9.203125 L 13.789062 -9.203125 L 13.789062 -1.308594 C 13.789062 -0.382812 13.066406 0.015625 13.066406 0.015625 Z M 13.066406 0.015625 "/></g></g></g><g fill="#ffffff" fill-opacity="1"><g transform="translate(229.363839, 253.20552)"><g><path d="M 7.894531 -1.074219 L 3.335938 -1.074219 C 2.761719 -1.074219 2.308594 -1.527344 2.308594 -2.101562 L 2.308594 -4.6875 L 5.734375 -4.6875 C 6.320312 -4.6875 6.820312 -3.953125 6.820312 -3.953125 L 6.820312 -6.46875 C 6.820312 -6.46875 6.292969 -5.761719 5.734375 -5.761719 L 2.308594 -5.761719 L 2.308594 -8.160156 C 2.308594 -8.746094 2.777344 -9.203125 3.351562 -9.203125 L 7.527344 -9.203125 C 8.054688 -9.203125 9.1875 -7.527344 9.1875 -7.527344 L 8.570312 -10.273438 L 0.457031 -10.273438 C 0.457031 -10.273438 1.175781 -9.761719 1.175781 -8.96875 L 1.175781 -1.335938 C 1.175781 -0.425781 0.457031 0.015625 0.457031 0.015625 L 8.921875 0.015625 L 9.539062 -3.027344 C 9.539062 -3.027344 8.410156 -1.074219 7.894531 -1.074219 Z M 7.894531 -1.074219 "/></g></g></g><g fill="#ffffff" fill-opacity="1"><g transform="translate(239.356636, 253.20552)"><g><path d="M 12.378906 0 C 12.378906 0 11.464844 -0.382812 10.921875 -1.527344 L 7.863281 -9.203125 L 7.4375 -10.273438 L 4.808594 -10.273438 L 4.378906 -9.203125 L 1.324219 -1.515625 C 0.777344 -0.382812 -0.117188 0 -0.117188 0 L 0.71875 0 L 0.71875 0.015625 L 1.941406 0.015625 L 1.941406 0 L 3.453125 0 C 3.453125 0 2.292969 -0.839844 2.484375 -1.367188 L 3.394531 -3.660156 L 8.863281 -3.660156 L 9.761719 -1.382812 C 9.980469 -0.851562 8.789062 0 8.789062 0 L 10.320312 0 L 10.320312 0.015625 L 11.539062 0.015625 L 11.539062 0 Z M 3.820312 -4.734375 L 5.601562 -9.203125 L 6.660156 -9.203125 L 8.4375 -4.734375 Z M 3.820312 -4.734375 "/></g></g></g><g fill="#ffffff" fill-opacity="1"><g transform="translate(251.627197, 253.20552)"><g><path d="M 5.835938 -0.910156 C 3.382812 -0.910156 1.585938 -3.058594 1.585938 -5.144531 C 1.585938 -7.21875 3.175781 -9.378906 5.835938 -9.378906 C 8.304688 -9.378906 9.980469 -8.085938 9.980469 -6.835938 L 11.113281 -6.660156 C 11.113281 -8.996094 8.597656 -10.453125 5.878906 -10.453125 C 2.941406 -10.453125 0.46875 -8.070312 0.46875 -5.144531 C 0.46875 -2.21875 2.941406 0.160156 5.878906 0.160156 C 10.039062 0.160156 11.011719 -3.410156 11.011719 -3.410156 L 10.539062 -3.734375 C 10.539062 -3.734375 9.480469 -0.910156 5.835938 -0.910156 Z M 5.835938 -0.910156 "/></g></g></g><g fill="#ffffff" fill-opacity="1"><g transform="translate(263.192389, 253.20552)"><g><path d="M 10.421875 -8.96875 C 10.421875 -9.878906 11.144531 -10.289062 11.144531 -10.289062 L 8.570312 -10.289062 C 8.570312 -10.289062 9.289062 -9.90625 9.289062 -8.96875 L 9.289062 -5.761719 L 2.277344 -5.761719 L 2.277344 -8.96875 C 2.277344 -10.011719 3 -10.289062 3 -10.289062 L 0.425781 -10.289062 C 0.425781 -10.289062 1.148438 -9.90625 1.148438 -8.96875 L 1.148438 -1.308594 C 1.148438 -0.5 0.425781 0 0.425781 0 L 3 0 C 3 0 2.277344 -0.484375 2.277344 -1.308594 L 2.277344 -4.6875 L 9.289062 -4.6875 L 9.289062 -1.308594 C 9.289062 -0.484375 8.570312 0 8.570312 0 L 11.144531 0 C 11.144531 0 10.421875 -0.484375 10.421875 -1.308594 Z M 10.421875 -8.96875 "/></g></g></g><g fill="#ffffff" fill-opacity="1"><g transform="translate(274.772276, 253.20552)"><g><path d="M 12.378906 0 C 12.378906 0 11.464844 -0.382812 10.921875 -1.527344 L 7.863281 -9.203125 L 7.4375 -10.273438 L 4.808594 -10.273438 L 4.378906 -9.203125 L 1.324219 -1.515625 C 0.777344 -0.382812 -0.117188 0 -0.117188 0 L 0.71875 0 L 0.71875 0.015625 L 1.941406 0.015625 L 1.941406 0 L 3.453125 0 C 3.453125 0 2.292969 -0.839844 2.484375 -1.367188 L 3.394531 -3.660156 L 8.863281 -3.660156 L 9.761719 -1.382812 C 9.980469 -0.851562 8.789062 0 8.789062 0 L 10.320312 0 L 10.320312 0.015625 L 11.539062 0.015625 L 11.539062 0 Z M 3.820312 -4.734375 L 5.601562 -9.203125 L 6.660156 -9.203125 L 8.4375 -4.734375 Z M 3.820312 -4.734375 "/></g></g></g><g fill="#ffffff" fill-opacity="1"><g transform="translate(287.042836, 253.20552)"><g><path d="M 13.066406 0.015625 L 15.65625 0.015625 C 15.65625 0.015625 14.921875 -0.339844 14.921875 -1.308594 L 14.921875 -10.273438 L 12.289062 -10.273438 L 8.613281 -1.074219 L 7.46875 -1.074219 L 3.792969 -10.273438 L 1.160156 -10.273438 L 1.160156 -1.308594 C 1.160156 -0.5 0.441406 0.015625 0.441406 0.015625 L 3.011719 0.015625 C 3.011719 0.015625 2.292969 -0.441406 2.292969 -1.308594 L 2.292969 -9.203125 L 3.027344 -9.203125 L 6.703125 0.015625 L 9.378906 0 L 13.054688 -9.203125 L 13.789062 -9.203125 L 13.789062 -1.308594 C 13.789062 -0.382812 13.066406 0.015625 13.066406 0.015625 Z M 13.066406 0.015625 "/></g></g></g></svg>